<?xml version="1.0" standalone="no"?>
<!DOCTYPE svg PUBLIC "-//W3C//DTD SVG 20010904//EN"
 "http://www.w3.org/TR/2001/REC-SVG-20010904/DTD/svg10.dtd">
<svg version="1.0" xmlns="http://www.w3.org/2000/svg"
 width="566.000000pt" height="500.000000pt" viewBox="0 0 566.000000 500.000000"
 preserveAspectRatio="xMidYMid meet">

<g transform="translate(0.000000,500.000000) scale(0.100000,-0.100000)"
fill="#000000" stroke="none">
<path d="M2087 4193 c-4 -3 -7 -23 -7 -43 0 -40 26 -72 70 -85 25 -8 98 -46
177 -92 39 -23 43 -23 50 -7 13 34 -20 97 -72 137 -93 71 -195 113 -218 90z"/>
<path d="M2939 4176 c-85 -35 -186 -117 -235 -189 -23 -34 -46 -62 -51 -62 -4
0 -14 -4 -20 -8 -8 -5 -13 -4 -13 3 0 6 -3 9 -8 6 -4 -2 -33 -7 -65 -10 -32
-4 -69 -11 -83 -16 -20 -8 -29 -6 -46 10 -12 11 -29 20 -38 20 -26 0 -128 -97
-139 -133 -18 -56 3 -157 33 -157 20 0 26 11 15 31 -11 22 6 103 26 119 7 6
23 13 35 15 13 2 37 9 54 14 41 12 256 22 256 11 0 -12 44 1 53 17 12 20 30
16 24 -6 -3 -12 1 -22 9 -25 8 -3 14 -10 14 -16 0 -7 -7 -8 -17 -3 -21 10 -94
9 -248 -2 -60 -4 -122 -8 -137 -9 -34 -1 -36 -4 -47 -59 -13 -69 -7 -72 90
-48 158 38 325 3 397 -85 41 -50 87 -147 101 -212 13 -65 14 -132 2 -132 -15
0 -25 40 -26 110 -1 53 -7 76 -34 128 -62 116 -157 172 -290 172 -148 0 -248
-38 -338 -128 -88 -87 -98 -119 -97 -297 1 -134 4 -159 27 -231 25 -74 46
-109 122 -200 l20 -24 49 25 c27 14 45 25 40 26 -5 0 2 5 16 10 18 8 21 12 11
18 -10 7 -10 13 -2 29 6 11 11 29 11 39 0 10 11 30 25 45 13 14 34 41 45 60
l20 33 -6 -31 -6 -31 44 6 c34 5 44 10 46 27 3 24 -45 70 -84 80 -28 7 -94 -3
-94 -15 0 -4 -17 -15 -39 -24 -36 -16 -100 -92 -87 -104 3 -3 22 13 42 36 21
22 43 41 49 41 7 0 20 11 31 24 10 14 21 23 25 20 4 -2 -8 -20 -27 -39 -19
-20 -34 -38 -34 -41 0 -11 27 -32 45 -35 15 -3 12 -7 -11 -17 -16 -8 -42 -20
-57 -28 -37 -18 -47 -17 -76 5 l-23 18 19 44 c21 47 107 134 123 124 6 -3 10
-1 10 4 0 14 100 14 136 0 32 -11 158 -139 180 -183 21 -38 12 -67 -28 -90
l-32 -20 39 -17 c22 -10 48 -18 57 -18 27 -1 181 158 207 215 59 124 66 229
24 334 -3 8 -5 18 -5 23 6 24 -73 149 -127 203 -50 50 -58 62 -44 66 12 3 25
25 36 61 16 52 16 58 1 97 -11 27 -30 50 -55 66 -25 15 -39 32 -39 45 0 52 38
79 178 123 106 33 118 40 137 76 23 45 -2 91 -48 90 -7 -1 -37 -11 -68 -24z
m-401 -313 c-10 -2 -26 -2 -35 0 -10 3 -2 5 17 5 19 0 27 -2 18 -5z m172 -3
c0 -13 -20 -13 -40 0 -12 8 -9 10 13 10 15 0 27 -4 27 -10z m-208 -97 c-5 -10
-12 -25 -15 -33 -3 -8 -6 0 -6 18 -1 22 4 32 14 32 12 0 13 -5 7 -17z m38 -18
c-7 -8 -17 -15 -23 -15 -5 0 -2 9 8 20 21 23 35 19 15 -5z m50 1 c0 -17 -14
-29 -23 -20 -8 8 3 34 14 34 5 0 9 -6 9 -14z m60 -3 c-1 -10 -50 -47 -50 -38
0 17 22 45 35 45 8 0 15 -3 15 -7z m90 -22 c0 -13 -24 -31 -39 -30 -11 0 -12
2 -3 6 17 7 15 23 -4 23 -8 0 -13 4 -10 9 6 9 56 2 56 -8z m-65 -153 c28 -10
39 -16 25 -13 -135 30 -165 35 -192 35 -28 0 -207 -65 -218 -80 -3 -3 -25 -24
-49 -46 -53 -46 -43 -23 15 38 49 51 142 89 244 98 66 5 87 2 175 -32z m-133
-29 c29 -6 59 -16 66 -21 6 -6 12 -7 12 -4 0 4 14 -2 30 -14 40 -29 38 -44 -3
-20 -35 21 -145 50 -189 50 -20 0 -26 -4 -22 -15 5 -11 -1 -15 -25 -15 -17 0
-31 -5 -31 -12 0 -6 -2 -9 -5 -6 -11 10 8 39 34 53 32 17 64 18 133 4z m-182
-58 c0 -5 -7 -12 -16 -15 -14 -5 -15 -4 -4 9 14 17 20 19 20 6z m242 -78 l73
-38 -40 -6 c-22 -4 -44 -3 -49 1 -5 5 -15 6 -24 3 -11 -5 -13 -3 -7 7 6 10 4
12 -10 7 -9 -4 -24 -2 -31 4 -16 13 -77 6 -167 -19 -51 -14 -37 2 21 24 26 10
52 24 57 30 11 14 36 21 77 23 14 0 59 -16 100 -36z m-416 -65 c-3 -29 -6 -69
-7 -88 -1 -34 -2 -33 -9 10 -9 51 -2 130 12 130 5 0 7 -24 4 -52z m334 22 c0
-5 -4 -10 -9 -10 -6 0 -13 5 -16 10 -3 6 1 10 9 10 9 0 16 -4 16 -10z m185
-10 c3 -5 2 -10 -4 -10 -5 0 -13 5 -16 10 -3 6 -2 10 4 10 5 0 13 -4 16 -10z
m-154 -35 c62 -22 177 -83 222 -118 32 -25 67 -73 67 -91 0 -3 -29 16 -64 43
-36 26 -86 56 -113 66 -26 10 -52 21 -58 25 -5 5 -37 13 -71 20 -59 12 -63 11
-132 -19 -39 -17 -83 -43 -99 -59 -77 -74 -121 -95 -115 -57 6 42 162 153 265
189 53 19 47 19 98 1z m303 -60 c35 -53 37 -74 3 -37 -16 17 -51 92 -44 92 2
0 21 -25 41 -55z m-318 -46 c37 -13 207 -143 239 -181 28 -33 26 -50 -2 -26
-10 8 -71 47 -135 87 -111 69 -120 73 -168 69 -55 -3 -61 4 -28 39 23 25 51
29 94 12z"/>
<path d="M2505 3420 c3 -5 11 -10 16 -10 6 0 7 5 4 10 -3 6 -11 10 -16 10 -6
0 -7 -4 -4 -10z"/>
<path d="M1695 4040 c-45 -30 -54 -93 -15 -105 27 -9 152 15 173 33 9 8 17 26
17 39 0 48 -118 71 -175 33z"/>
<path d="M3282 4023 c-52 -10 -40 -74 18 -97 59 -24 112 -21 138 7 27 29 28
51 2 77 -16 16 -32 20 -77 19 -32 -1 -68 -4 -81 -6z"/>
<path d="M1890 3974 c-15 -38 -14 -40 33 -67 23 -14 54 -37 69 -51 30 -29 40
-31 68 -16 19 10 19 11 0 43 -25 41 -116 117 -142 117 -11 0 -23 -11 -28 -26z"/>
<path d="M3169 3974 c-50 -28 -139 -112 -139 -130 0 -7 -5 -14 -12 -16 -7 -3
-9 -12 -4 -24 7 -17 8 -18 20 -2 14 20 134 101 176 120 34 15 35 17 17 51
l-13 26 -45 -25z"/>
<path d="M2055 3783 c-58 -30 -105 -88 -105 -130 0 -12 14 -2 45 32 37 43 44
47 45 28 0 -33 47 -175 66 -202 l17 -24 59 63 c32 35 58 67 58 72 0 16 -81
151 -98 164 -22 17 -49 16 -87 -3z"/>
<path d="M1220 3770 c-13 -13 -20 -33 -20 -57 0 -30 7 -43 42 -75 45 -42 102
-64 140 -55 12 4 38 19 57 35 39 32 37 53 -7 97 -66 67 -173 94 -212 55z"/>
<path d="M2908 3758 c-11 -11 -31 -45 -44 -75 l-24 -54 47 -55 c56 -65 73 -69
73 -16 0 49 27 142 42 142 6 0 26 -13 45 -30 52 -46 68 -38 38 20 -19 37 -59
64 -113 78 -39 9 -46 8 -64 -10z"/>
<path d="M3620 3703 c-41 -29 -80 -64 -80 -72 0 -3 16 -23 35 -43 25 -28 42
-38 64 -38 36 0 111 28 111 41 0 11 -83 139 -90 138 -3 0 -21 -12 -40 -26z"/>
<path d="M1468 3603 c-33 -43 -35 -80 -8 -134 35 -68 118 -101 198 -80 50 14
57 37 27 93 -24 46 -148 158 -174 158 -9 -1 -28 -17 -43 -37z"/>
<path d="M1888 3581 c-28 -25 -32 -34 -29 -75 3 -60 16 -94 48 -128 30 -31
109 -61 150 -56 26 3 28 6 27 48 -1 80 -98 240 -145 240 -10 0 -33 -13 -51
-29z"/>
<path d="M3480 3593 c-50 -19 -167 -144 -154 -165 8 -12 101 -58 119 -58 23 0
91 71 109 113 27 66 -16 131 -74 110z"/>
<path d="M3110 3583 c-24 -9 -76 -69 -107 -123 l-28 -50 30 -55 c16 -30 34
-55 40 -55 6 0 40 19 75 43 72 47 85 75 77 160 -6 69 -38 98 -87 80z"/>
<path d="M1705 3367 l-27 -23 91 -42 c50 -23 94 -42 99 -42 5 0 34 -11 63 -25
l54 -25 -40 7 c-22 3 -78 21 -125 40 -103 42 -201 73 -210 68 -4 -2 -76 -5
-161 -6 -208 -2 -529 -37 -529 -58 0 -4 46 -15 103 -25 114 -18 197 -53 265
-111 33 -29 43 -33 48 -22 3 9 1 24 -5 36 -19 34 -13 68 15 90 63 50 317 15
573 -77 50 -18 39 -29 -12 -13 -19 7 -43 14 -53 16 -10 2 -69 18 -129 34 -61
16 -135 32 -165 36 -30 3 -72 8 -92 10 -67 8 -61 -33 8 -60 74 -28 152 -44
297 -60 76 -8 146 -20 155 -25 13 -9 11 -10 -13 -6 -16 3 -82 8 -145 11 -63 3
-133 9 -155 15 -22 5 -43 10 -47 10 -15 0 -8 -48 10 -68 19 -21 91 -52 122
-52 23 0 27 29 8 48 -8 8 -8 12 -1 12 6 0 16 -7 23 -15 9 -11 33 -15 84 -16
39 0 91 -4 116 -9 35 -7 24 -8 -51 -6 -104 4 -123 -1 -117 -30 2 -14 18 -22
63 -32 33 -7 84 -22 113 -34 43 -16 68 -20 123 -16 38 3 72 8 75 10 2 3 -9 47
-26 99 -18 55 -32 118 -33 154 -4 83 -21 106 -98 135 -35 12 -90 38 -124 56
-72 40 -114 43 -150 11z"/>
<path d="M3231 3350 c-30 -21 -80 -49 -110 -60 -83 -32 -85 -34 -92 -76 -13
-79 -18 -169 -8 -152 5 9 26 22 47 29 20 6 66 26 102 44 36 18 102 45 148 61
66 23 92 38 130 77 l47 47 -48 -14 c-26 -8 -53 -18 -60 -24 -12 -8 -134 -51
-166 -57 -9 -2 -17 -4 -18 -5 -2 -2 -6 -3 -10 -5 -13 -3 -65 -25 -74 -31 -5
-3 -9 -2 -9 1 0 3 44 26 98 51 152 70 205 98 205 109 -1 11 -88 45 -113 45 -8
-1 -39 -18 -69 -40z"/>
<path d="M3946 3321 c-11 -12 -23 -21 -28 -21 -5 0 -34 -26 -63 -57 -46 -50
-52 -60 -40 -72 12 -12 19 -11 50 3 20 10 52 20 71 23 33 5 70 43 43 43 -7 0
-10 3 -6 6 3 3 2 17 -4 31 -6 16 -6 22 1 18 11 -7 12 2 1 28 -6 17 -8 17 -25
-2z"/>
<path d="M4130 3272 c0 -6 -3 -18 -7 -27 -5 -14 -1 -16 23 -12 16 3 55 9 88
12 34 4 55 10 49 16 -13 13 -153 24 -153 11z"/>
<path d="M653 3220 c-40 -11 -81 -24 -92 -30 -11 -5 -28 -10 -38 -10 -29 0
-173 -73 -259 -130 -54 -37 -80 -62 -90 -86 -32 -77 13 -149 140 -228 211
-132 432 -156 760 -85 50 11 136 28 191 39 55 10 134 26 175 35 41 9 110 18
154 20 70 4 83 8 121 37 l43 33 -97 6 c-103 6 -179 -3 -276 -31 -33 -10 -89
-23 -125 -29 -36 -6 -114 -21 -173 -32 -139 -27 -329 -23 -452 10 -171 45
-342 136 -320 170 6 10 76 62 166 123 23 14 67 31 101 37 49 8 67 17 90 43 48
55 80 106 73 117 -8 13 -3 14 -92 -9z"/>
<path d="M780 3225 c-22 -26 -6 -46 63 -75 38 -16 87 -44 110 -63 58 -47 80
-57 123 -57 43 0 204 46 204 59 0 27 -151 111 -200 111 -15 0 -30 4 -35 9 -10
9 -168 31 -222 31 -17 0 -36 -7 -43 -15z"/>
<path d="M4285 3228 c-160 -24 -173 -28 -180 -60 -7 -28 -9 -29 -43 -23 -21 3
-42 13 -48 21 -13 16 -32 14 -116 -13 -80 -25 -66 -42 72 -89 l121 -42 60 39
c74 48 141 82 194 99 44 13 65 34 65 62 0 20 -24 22 -125 6z"/>
<path d="M4441 3222 c-5 -10 -7 -23 -3 -29 7 -10 76 -41 172 -76 25 -9 67 -35
95 -58 27 -22 63 -48 80 -56 138 -70 127 -123 -47 -210 -180 -90 -355 -110
-648 -74 -120 14 -350 59 -466 91 -107 30 -160 20 -218 -39 l-46 -47 87 4 c67
3 118 -2 213 -22 118 -24 260 -49 465 -82 50 -9 160 -16 245 -16 137 -1 166 2
250 25 124 33 241 83 318 136 l63 42 -3 91 -3 92 -63 43 c-72 49 -197 115
-257 134 -22 7 -49 19 -60 26 -10 7 -41 16 -67 19 -27 4 -51 11 -54 15 -9 16
-43 10 -53 -9z"/>
<path d="M1347 3204 c-11 -11 4 -57 25 -81 19 -21 97 -62 146 -77 50 -16 11
66 -43 88 -18 8 -46 28 -64 45 -31 30 -51 38 -64 25z"/>
<path d="M3320 3168 c-14 -6 -58 -26 -97 -44 -40 -19 -76 -34 -79 -34 -4 0
-33 -12 -65 -26 -40 -18 -59 -32 -59 -45 0 -29 13 -30 101 -8 110 27 116 30
183 105 58 65 60 71 16 52z"/>
<path d="M3739 3124 c-32 -34 -33 -36 -9 -29 35 10 67 42 54 55 -7 7 -21 -2
-45 -26z"/>
<path d="M4385 3141 c-71 -18 -165 -82 -165 -111 0 -10 8 -21 18 -24 26 -9
127 20 179 50 42 26 81 69 71 80 -10 10 -73 13 -103 5z"/>
<path d="M714 3116 c-22 -31 -17 -55 14 -67 56 -23 197 -46 220 -38 l23 9 -26
34 c-53 69 -198 108 -231 62z"/>
<path d="M4476 3070 c-20 -22 -36 -44 -36 -48 0 -12 232 -34 243 -23 15 15
-23 61 -74 87 -68 34 -90 31 -133 -16z"/>
<path d="M3778 3064 c-14 -13 -8 -51 10 -66 26 -23 179 -98 200 -98 24 0 59
37 67 71 7 29 6 30 -115 68 -76 24 -152 36 -162 25z"/>
<path d="M1236 3039 c-93 -23 -118 -41 -114 -82 5 -52 24 -53 136 -6 83 35
102 47 102 64 0 23 -18 46 -34 44 -6 -1 -47 -10 -90 -20z"/>
<path d="M1397 3043 c-17 -29 -17 -76 1 -115 33 -75 25 -73 304 -74 234 -1
275 3 252 26 -5 5 -70 25 -144 45 -74 20 -194 56 -265 80 -141 49 -142 49
-148 38z"/>
<path d="M3580 2955 l-95 -95 96 0 96 0 36 41 c44 49 53 78 35 116 -9 20 -22
29 -43 31 -26 2 -42 -10 -125 -93z"/>
<path d="M510 3021 c-24 -21 -25 -21 -6 -36 24 -19 37 -19 106 0 30 8 55 13
57 12 1 -2 0 -12 -3 -24 -5 -19 -9 -20 -35 -11 -24 8 -34 6 -61 -13 -102 -71
-25 -78 92 -9 36 22 73 42 83 46 9 3 17 10 17 15 0 16 -45 27 -137 34 -81 6
-91 5 -113 -14z"/>
<path d="M2988 3023 c-3 -4 -8 -21 -12 -36 -6 -26 -4 -28 16 -25 18 2 22 9 20
28 -3 27 -17 46 -24 33z"/>
<path d="M981 2978 c-19 -11 -53 -35 -75 -54 -22 -19 -44 -34 -50 -34 -6 0
-24 -11 -41 -25 -25 -21 -28 -26 -15 -35 25 -16 58 -11 101 16 22 14 74 40
115 59 76 35 87 50 56 78 -24 22 -49 20 -91 -5z"/>
<path d="M3159 2986 c-2 -2 -26 -7 -54 -9 -54 -6 -125 -32 -125 -46 0 -10 69
-31 102 -31 16 0 36 14 61 45 21 25 34 45 29 45 -5 0 -11 -2 -13 -4z"/>
<path d="M4084 2975 c-8 -20 -1 -29 74 -88 100 -80 132 -92 132 -51 0 17 -105
127 -137 143 -30 15 -63 14 -69 -4z"/>
<path d="M4298 2978 c-56 -12 -60 -24 -20 -75 29 -40 110 -96 124 -87 13 8 40
65 48 101 16 68 -30 86 -152 61z"/>
<path d="M725 2947 c-33 -17 -60 -39 -60 -47 0 -9 17 -21 40 -29 35 -12 44
-12 75 3 70 33 115 65 115 83 0 15 -10 18 -55 20 -46 3 -65 -3 -115 -30z"/>
<path d="M2467 2967 c-3 -9 -1 -18 6 -21 9 -3 8 -8 -3 -15 -11 -8 -12 -11 -2
-11 7 0 10 -5 7 -10 -4 -6 -11 -7 -17 -4 -7 4 -8 2 -4 -5 5 -7 16 -9 29 -5 19
6 20 5 8 -10 -12 -14 -10 -16 18 -16 20 0 31 5 31 14 0 8 16 27 37 43 22 19
33 34 29 42 -6 9 -11 9 -21 1 -7 -6 -25 -8 -39 -4 -19 4 -28 2 -32 -10 -5 -13
-8 -13 -23 6 -15 18 -19 19 -24 5z"/>
<path d="M4490 2955 c-10 -12 -7 -19 19 -41 17 -14 48 -51 68 -81 40 -61 53
-69 81 -54 46 25 52 37 35 80 -8 21 -26 50 -39 64 -39 42 -139 62 -164 32z"/>
<path d="M4704 2960 c-33 -13 -35 -23 -11 -65 19 -33 28 -41 58 -43 41 -3 102
33 107 64 6 38 -96 68 -154 44z"/>
<path d="M400 2934 c-19 -13 -35 -29 -34 -34 1 -6 2 -14 3 -19 5 -35 117 -5
127 35 3 13 3 28 -1 33 -11 19 -59 11 -95 -15z"/>
<path d="M1335 2952 c-6 -4 -21 -21 -33 -38 l-21 -31 25 -36 c14 -21 32 -37
40 -37 23 0 74 29 74 42 0 8 -70 109 -75 108 0 0 -5 -4 -10 -8z"/>
<path d="M3743 2894 c-24 -25 -42 -51 -40 -57 2 -6 18 -16 36 -21 26 -7 36 -5
54 11 30 26 78 56 83 51 2 -3 -16 -20 -41 -38 -46 -34 -55 -45 -32 -37 6 2 26
-2 44 -10 61 -25 70 -20 68 40 -2 51 -2 52 -51 79 -27 15 -55 27 -63 27 -8 1
-34 -20 -58 -45z"/>
<path d="M1220 2913 c-24 -9 -40 -25 -35 -34 5 -7 77 19 92 34 8 8 -36 8 -57
0z"/>
<path d="M4042 2900 c-12 -12 -22 -25 -22 -30 0 -5 25 -23 56 -41 31 -18 72
-45 90 -61 40 -36 69 -34 69 4 0 21 -16 38 -79 87 -43 34 -82 61 -85 61 -4 0
-17 -9 -29 -20z"/>
<path d="M1010 2876 c-67 -27 -150 -75 -150 -86 0 -4 8 -18 18 -30 17 -20 22
-22 50 -12 39 13 151 89 174 116 33 42 -6 47 -92 12z"/>
<path d="M2073 2876 c-17 -6 -41 -20 -52 -30 -11 -10 -35 -21 -53 -25 l-33 -7
83 -62 c46 -34 89 -62 96 -62 18 0 132 58 145 74 9 10 -2 24 -47 63 -64 55
-92 65 -139 49z"/>
<path d="M4452 2863 c-22 -58 -22 -70 -1 -96 22 -29 50 -34 93 -17 37 14 33
43 -15 95 -48 52 -63 55 -77 18z"/>
<path d="M1122 2851 c-12 -16 -39 -39 -60 -51 -37 -21 -72 -60 -53 -60 5 0 26
6 47 14 22 7 44 11 49 9 12 -4 65 80 65 102 0 25 -25 17 -48 -14z"/>
<path d="M2450 2870 c0 -5 5 -10 11 -10 5 0 7 5 4 10 -3 6 -8 10 -11 10 -2 0
-4 -4 -4 -10z"/>
<path d="M2915 2872 c-57 -20 -135 -74 -135 -94 0 -10 73 -42 116 -51 28 -5
37 1 99 63 38 38 66 73 62 77 -10 10 -118 14 -142 5z"/>
<path d="M457 2855 c-18 -13 -18 -14 3 -25 11 -6 39 -18 61 -25 39 -14 41 -14
65 10 43 43 33 55 -43 55 -42 -1 -75 -6 -86 -15z"/>
<path d="M1233 2859 c-6 -6 -19 -12 -29 -13 -11 -2 -21 -11 -23 -22 -1 -10
-10 -27 -19 -36 -14 -17 -13 -18 9 -18 27 0 128 26 137 34 6 6 -47 66 -58 66
-3 0 -11 -5 -17 -11z"/>
<path d="M3946 2863 c-11 -11 -6 -70 7 -80 35 -28 167 -55 167 -35 0 27 -157
131 -174 115z"/>
<path d="M626 2826 c-9 -20 -14 -41 -11 -46 13 -21 61 -10 90 20 33 35 27 48
-27 56 -32 6 -36 4 -52 -30z"/>
<path d="M2466 2822 c-20 -4 -17 -42 8 -90 20 -39 20 -39 -4 -45 -15 -4 -20 0
-20 14 0 12 -7 19 -18 19 -10 0 -27 7 -38 16 -18 15 -18 15 4 9 17 -5 24 -1
31 16 5 16 4 28 -5 37 -11 11 -25 5 -81 -32 -37 -24 -84 -51 -103 -59 -19 -8
-50 -21 -69 -29 l-34 -14 34 -21 c21 -14 60 -24 104 -28 64 -6 76 -4 135 23
36 16 71 37 79 46 23 27 80 47 156 53 84 7 79 -9 -9 -26 -33 -6 -71 -18 -85
-28 l-25 -16 55 -15 c31 -9 98 -16 156 -16 94 -1 103 1 127 23 14 13 23 28 20
33 -3 5 -8 7 -11 4 -3 -3 -51 19 -107 48 -56 30 -120 59 -143 65 -44 12 -127
18 -157 13z"/>
<path d="M731 2794 c-17 -14 -31 -29 -31 -33 0 -11 72 -31 111 -31 56 0 63 12
26 47 -47 45 -69 49 -106 17z"/>
<path d="M4298 2809 c-23 -13 -43 -68 -30 -81 10 -10 147 3 159 16 8 7 -15 34
-40 48 -35 18 -73 26 -89 17z"/>
<path d="M3393 2689 c-18 -5 -33 -16 -33 -23 0 -7 21 -41 48 -76 41 -56 55
-67 117 -91 80 -32 133 -37 142 -13 16 42 -52 160 -108 187 -45 21 -126 29
-166 16z"/>
<path d="M1539 2649 l-24 -20 28 17 c15 9 27 18 27 20 0 8 -8 4 -31 -17z"/>
<path d="M3272 2627 c-26 -28 -28 -68 -4 -89 9 -8 39 -22 65 -31 l48 -16 -7
22 c-9 31 -55 115 -69 127 -8 7 -19 2 -33 -13z"/>
<path d="M2425 2605 c-38 -13 -78 -24 -87 -24 -10 -1 -22 -10 -27 -20 -9 -16
-4 -23 37 -49 45 -29 49 -30 107 -20 33 5 103 8 156 5 l97 -5 36 37 c20 20 36
42 36 48 0 6 -24 16 -52 21 -29 5 -80 15 -114 21 -82 15 -108 13 -189 -14z
m205 -61 c0 -5 -52 -2 -63 3 -4 3 -5 8 -2 13 5 8 65 -7 65 -16z"/>
<path d="M2230 2595 c0 -2 9 -9 20 -15 24 -13 50 -2 29 11 -15 9 -49 12 -49 4z"/>
<path d="M3205 2560 c-3 -5 -1 -10 4 -10 6 0 11 5 11 10 0 6 -2 10 -4 10 -3 0
-8 -4 -11 -10z"/>
<path d="M3068 2414 c-51 -52 -94 -99 -96 -104 -2 -4 8 -36 22 -71 14 -34 36
-99 47 -143 31 -115 34 -119 76 -113 19 3 54 22 78 41 23 19 45 32 49 29 3 -4
6 -1 6 5 0 6 12 23 26 37 31 31 74 50 74 33 0 -6 9 -1 19 11 11 13 21 17 23
10 8 -23 30 40 24 66 l-7 26 -35 -30 c-19 -17 -40 -31 -47 -31 -7 0 -24 -7
-39 -14 -16 -9 -30 -11 -33 -5 -4 5 -14 9 -23 8 -14 0 -13 -2 3 -8 18 -8 16
-10 -17 -27 -21 -9 -41 -15 -44 -11 -8 8 47 56 66 57 8 0 31 14 50 31 19 16
36 25 38 19 3 -9 32 33 32 45 0 10 -64 22 -112 20 -42 -2 -70 -10 -112 -34
-31 -17 -58 -31 -60 -31 -3 0 -10 17 -15 37 -9 33 -8 40 12 61 12 14 58 42
102 64 105 51 113 59 91 92 -13 21 -24 26 -60 26 -43 0 -48 -3 -138 -96z m82
6 c0 -5 -9 -10 -20 -10 -11 0 -20 5 -20 10 0 6 9 10 20 10 11 0 20 -4 20 -10z
m129 -175 c-25 -13 -51 -31 -58 -39 -7 -9 -17 -13 -22 -10 -5 3 -25 -4 -45
-17 -24 -14 -39 -18 -45 -12 -13 13 34 43 118 78 76 32 113 32 52 0z"/>
<path d="M1882 2480 c-34 -21 -38 -33 -22 -76 10 -26 13 -27 66 -21 56 6 114
-7 114 -25 0 -7 -4 -7 -12 0 -22 17 -153 2 -218 -25 -32 -13 -76 -57 -106
-105 -30 -47 -30 -50 4 -43 25 6 24 4 -8 -14 -42 -24 -36 -27 14 -6 23 10 34
20 30 27 -4 7 -3 8 4 4 6 -3 16 2 22 13 9 18 8 20 -7 14 -10 -3 -5 4 10 16 16
14 36 21 47 18 11 -3 20 -1 20 3 0 5 9 11 20 15 10 3 35 22 54 41 34 34 57 32
37 -3 -8 -14 -11 -15 -11 -3 0 11 -4 10 -12 -4 -8 -15 -8 -21 0 -24 25 -8 10
-22 -35 -35 -31 -9 -49 -20 -52 -32 -2 -15 1 -17 20 -10 60 18 76 17 82 -4 4
-18 0 -23 -24 -28 -21 -4 -29 -11 -29 -27 0 -11 -5 -28 -11 -36 -8 -11 -9 -7
-5 18 5 28 2 34 -19 42 -43 16 -75 9 -75 -17 0 -13 -4 -23 -10 -23 -14 0 -12
-28 3 -33 6 -2 8 -8 4 -13 -7 -7 -21 6 -29 28 -2 4 -25 4 -53 0 l-50 -7 -3
-42 -3 -42 31 15 c41 21 150 31 150 15 0 -7 11 0 24 14 24 25 24 25 29 4 10
-36 -9 -59 -42 -53 -17 4 -32 1 -36 -6 -5 -8 -10 -7 -18 4 -10 13 -19 14 -49
5 -21 -5 -38 -14 -38 -19 0 -4 -9 -6 -20 -3 -17 5 -20 0 -20 -26 0 -18 4 -41
10 -51 9 -16 14 -17 47 -7 51 14 63 25 63 53 0 13 4 24 9 24 5 0 7 -9 4 -20
-5 -19 -4 -19 36 -3 23 9 41 22 41 30 0 15 16 17 25 3 4 -6 11 -8 16 -4 5 3 7
10 3 15 -3 5 -9 7 -13 5 -4 -3 -8 1 -8 9 0 8 3 15 7 15 9 0 55 -49 49 -53 -2
-2 -30 -11 -62 -21 -32 -9 -55 -22 -51 -27 6 -10 45 -2 54 11 3 4 23 5 45 1
l40 -7 -27 -18 c-15 -10 -35 -19 -44 -20 -10 -2 -20 -9 -22 -16 -3 -8 0 -10 8
-5 18 11 31 -16 15 -32 -8 -7 -18 -13 -24 -13 -15 0 -32 -70 -21 -90 7 -13 2
-22 -19 -38 -22 -16 -30 -32 -35 -69 -4 -26 -10 -63 -13 -81 l-5 -33 33 20
c19 12 47 21 62 21 82 0 117 65 141 256 23 189 53 322 92 410 31 70 27 66 48
58 12 -5 14 -10 5 -20 -14 -17 -40 -104 -34 -114 2 -4 43 2 90 13 77 19 87 20
101 6 14 -15 11 -17 -33 -22 -128 -16 -177 -52 -193 -136 -11 -60 -2 -111 28
-149 l18 -23 44 35 c46 36 157 78 240 91 25 4 53 11 63 17 10 5 43 5 82 0 36
-5 65 -8 65 -7 0 1 -52 37 -115 81 -255 175 -370 257 -458 327 -141 112 -137
110 -175 87z m86 -58 c2 -6 -2 -12 -9 -12 -7 0 -9 3 -6 7 4 4 -6 12 -23 19
-16 7 -30 18 -30 24 0 15 62 -20 68 -38z m5 -227 c-3 -9 -8 -14 -10 -11 -3 3
-2 9 2 15 9 16 15 13 8 -4z m-134 -87 c-14 -26 -23 -15 -25 29 l-1 36 18 -22
c15 -18 16 -27 8 -43z m348 -40 c-8 -23 -18 -58 -22 -76 -10 -48 -29 -28 -21
24 5 39 43 110 54 100 2 -2 -3 -24 -11 -48z m302 -17 c24 -19 24 -19 -45 -14
-50 4 -92 -1 -153 -16 -100 -25 -97 -25 -81 -5 30 35 88 50 200 52 40 1 62 -4
79 -17z m-611 -417 c-4 -3 -12 5 -18 18 -12 22 -12 22 6 6 10 -10 15 -20 12
-24z"/>
<path d="M3300 2489 c0 -5 5 -7 10 -4 6 3 10 8 10 11 0 2 -4 4 -10 4 -5 0 -10
-5 -10 -11z"/>
<path d="M3335 2463 c-3 -8 5 -13 20 -13 14 0 25 -3 26 -7 0 -5 1 -45 2 -91 0
-53 5 -81 11 -79 10 4 12 39 6 132 -1 22 -4 47 -6 55 -5 18 -52 20 -59 3z"/>
<path d="M2450 2460 l-24 -6 24 -17 c18 -13 45 -17 105 -17 72 0 84 3 103 23
l22 24 -102 0 c-57 -1 -114 -3 -128 -7z"/>
<path d="M3474 2460 c-12 -5 -24 -16 -28 -25 -8 -22 10 -135 30 -185 38 -95
163 -137 241 -81 57 41 -1 173 -105 240 -68 44 -113 60 -138 51z"/>
<path d="M1774 2396 c-25 -25 -54 -48 -63 -51 -40 -12 -69 -58 -73 -114 -4
-66 13 -77 29 -18 19 68 73 132 127 147 41 11 46 16 46 41 0 45 -18 44 -66 -5z"/>
<path d="M3255 2393 c-33 -14 -69 -29 -80 -33 -74 -27 -118 -57 -109 -71 3 -5
13 -5 22 0 29 14 182 52 191 47 12 -8 74 61 67 73 -10 15 -22 13 -91 -16z"/>
<path d="M2526 2391 c-2 -3 6 -14 19 -23 20 -15 24 -15 44 -2 11 8 21 19 21
24 0 10 -78 11 -84 1z"/>
<path d="M2890 2233 l-45 -48 28 -3 c36 -4 41 1 27 27 -7 14 -7 21 0 21 6 0
13 -14 17 -30 3 -17 13 -36 23 -43 23 -16 36 -45 38 -85 2 -18 3 -36 3 -40 4
-26 -3 -72 -10 -72 -11 0 -31 87 -31 135 0 41 -20 55 -82 55 -38 0 -49 -5 -83
-40 -35 -36 -37 -40 -17 -40 12 0 22 -6 22 -14 0 -9 -7 -12 -18 -9 -25 6 -69
-13 -81 -35 -9 -18 0 -20 145 -44 85 -15 163 -24 174 -21 33 9 28 111 -11 216
-46 127 -46 128 -99 70z"/>
<path d="M1541 2215 c-29 -24 -63 -53 -75 -65 l-21 -22 48 5 c26 2 56 12 66
21 16 15 47 94 39 101 -2 1 -27 -17 -57 -40z"/>
<path d="M3417 2139 c4 -13 8 -18 11 -10 2 7 -1 18 -6 23 -8 8 -9 4 -5 -13z"/>
<path d="M3726 2144 c-11 -27 -7 -93 10 -167 17 -75 50 -151 62 -144 4 3 24
12 45 22 102 48 82 177 -42 273 -47 36 -66 40 -75 16z"/>
<path d="M3506 2114 c-17 -45 3 -226 26 -240 19 -12 81 -13 102 -2 32 17 36
27 36 109 0 62 -4 81 -20 102 -33 41 -132 62 -144 31z"/>
<path d="M1363 2072 c-94 -75 -113 -103 -113 -166 0 -37 19 -58 69 -75 77 -26
93 -8 123 139 17 86 18 106 8 126 -8 13 -17 24 -20 24 -4 0 -34 -21 -67 -48z"/>
<path d="M1547 2099 c-40 -31 -58 -72 -64 -148 -7 -86 5 -101 82 -101 54 0 71
13 59 44 -3 7 -8 60 -12 117 -8 115 -16 127 -65 88z"/>
<path d="M3415 2080 c-4 -6 -26 -10 -49 -9 -55 3 -84 -13 -41 -22 17 -4 47 -7
68 -8 33 -1 37 2 37 24 0 27 -5 31 -15 15z"/>
<path d="M3200 1975 c-30 -13 -70 -24 -89 -25 -32 0 -33 -1 -27 -32 4 -18 11
-77 16 -131 12 -146 65 -222 147 -215 29 2 39 9 54 37 10 18 27 40 38 48 20
13 20 13 11 -12 -14 -36 -12 -42 4 -19 12 15 17 17 27 7 7 -7 16 -13 20 -13 8
0 42 140 36 146 -2 2 -11 -14 -20 -35 -18 -40 -53 -54 -43 -17 3 12 6 37 6 56
1 33 2 33 11 11 5 -13 7 -33 4 -45 -5 -17 -4 -18 5 -6 6 8 19 31 30 52 24 44
14 55 -46 52 -74 -4 -93 -28 -94 -118 l-1 -31 -14 25 c-11 18 -13 40 -9 75 6
49 6 50 -13 33 -28 -26 -33 -23 -33 22 0 34 4 41 25 46 14 3 33 3 42 -1 10 -4
41 -10 68 -14 28 -5 57 -10 65 -12 23 -6 16 109 -8 127 -29 22 -59 16 -87 -18
l-26 -33 6 33 c6 30 5 32 -22 32 -15 -1 -53 -12 -83 -25z"/>
<path d="M2530 1955 c-8 -2 -49 -9 -90 -15 -75 -12 -125 -29 -87 -30 34 0 16
-18 -25 -25 -43 -7 -133 -37 -175 -57 -32 -16 -53 -68 -53 -131 0 -40 4 -56
15 -61 9 -3 57 3 108 13 199 41 243 46 432 46 105 -1 198 -5 207 -10 11 -7
-56 -10 -200 -11 -169 0 -233 -4 -287 -18 -38 -9 -81 -19 -95 -21 -57 -10
-124 -25 -128 -30 -11 -11 -2 -68 15 -102 30 -56 43 -60 101 -30 28 15 90 34
139 42 141 26 159 33 90 34 -63 1 -146 18 -162 33 -6 6 -1 7 15 4 14 -4 115
-8 225 -11 110 -3 223 -9 250 -14 l50 -9 -65 0 c-128 1 -213 -2 -209 -7 3 -2
59 -9 125 -15 65 -7 144 -20 174 -30 30 -10 58 -17 61 -14 15 9 21 106 8 130
-16 31 -6 41 25 21 23 -16 24 -15 37 15 19 47 8 116 -34 210 -18 40 -26 48
-57 53 -19 4 -35 7 -35 7 0 0 -29 6 -65 13 -62 14 -278 28 -310 20z m282 -80
c121 -13 62 -23 -109 -18 -182 6 -308 -6 -367 -33 -20 -10 -36 -21 -36 -25 0
-3 -13 -9 -30 -12 -16 -4 -47 -22 -67 -41 l-38 -34 45 8 c295 55 720 60 720 9
0 -6 -8 -8 -17 -5 -10 3 -61 10 -113 16 -83 9 -123 7 -318 -15 -272 -31 -327
-32 -329 -7 -1 19 64 72 139 114 47 26 118 45 183 51 60 4 272 0 337 -8z"/>
<path d="M2275 1900 c-3 -5 -2 -10 4 -10 5 0 13 5 16 10 3 6 2 10 -4 10 -5 0
-13 -4 -16 -10z"/>
<path d="M1670 1850 c4 -22 12 -45 18 -52 5 -7 16 -33 23 -58 l12 -45 13 60
c7 33 17 73 23 88 6 16 9 33 5 38 -8 13 -32 11 -37 -3 -4 -10 -6 -9 -6 1 -1
11 -4 11 -16 1 -11 -9 -18 -10 -29 -1 -11 9 -12 4 -6 -29z"/>
<path d="M1803 1873 c-23 -5 -37 -37 -48 -108 -6 -45 -9 -47 54 51 19 29 39
50 44 47 6 -3 7 -1 3 5 -7 12 -13 13 -53 5z"/>
<path d="M3865 1820 c-73 -36 -94 -110 -50 -176 15 -23 73 -54 102 -54 41 0
69 160 38 220 -18 35 -36 37 -90 10z"/>
<path d="M1186 1814 c-34 -33 -37 -51 -27 -186 2 -29 31 -50 60 -43 55 14 101
81 101 148 0 69 -91 125 -134 81z"/>
<path d="M3527 1819 c-25 -15 -42 -53 -67 -153 -23 -95 -73 -216 -88 -216 -6
0 -12 11 -14 25 -3 14 -2 25 2 25 13 0 30 84 19 95 -7 7 -8 4 -4 -7 6 -14 2
-18 -14 -18 -18 0 -20 -4 -15 -32 l6 -33 -21 33 c-12 19 -25 32 -29 30 -4 -2
-24 -14 -44 -27 -44 -27 -47 -47 -18 -106 60 -120 75 -132 124 -99 26 16 160
200 213 290 39 67 62 166 43 189 -14 17 -66 19 -93 4z"/>
<path d="M1516 1807 c-15 -11 -18 -21 -13 -46 15 -72 78 -183 164 -288 96
-118 107 -129 142 -144 30 -12 46 1 55 43 4 18 16 51 27 74 11 24 21 55 22 71
2 25 -1 28 -33 31 -48 4 -70 -15 -77 -66 -3 -24 -10 -39 -14 -35 -9 9 -45 102
-94 241 -33 95 -44 114 -70 118 -8 1 -31 5 -52 9 -26 4 -44 1 -57 -8z"/>
<path d="M1753 1608 c11 -45 12 -45 20 4 5 31 3 36 -12 35 -16 -1 -17 -6 -8
-39z"/>
<path d="M2076 1612 c-2 -4 -24 -18 -48 -31 -36 -18 -49 -35 -80 -96 -73 -142
-36 -198 111 -169 38 8 40 15 44 167 3 84 0 120 -9 128 -7 5 -15 6 -18 1z"/>
<path d="M3036 1612 c-16 -27 -32 -235 -20 -278 11 -43 147 -39 181 5 33 43
-1 131 -86 223 -52 57 -65 66 -75 50z"/>
<path d="M1190 1518 c-20 -33 -26 -99 -14 -146 10 -34 53 -41 77 -11 16 20 19
35 14 93 -3 52 -9 73 -23 83 -26 19 -32 17 -54 -19z"/>
<path d="M3891 1536 c-17 -20 -16 -118 1 -154 17 -35 62 -42 78 -13 20 39 17
117 -6 148 -24 33 -55 41 -73 19z"/>
<path d="M2549 1496 c-2 -3 -31 -7 -64 -10 -130 -12 -155 -18 -155 -35 0 -9 6
-23 13 -31 9 -11 8 -11 -8 0 -11 8 -23 19 -26 24 -8 10 -79 -12 -79 -25 0 -11
40 -73 73 -114 l24 -29 29 19 c16 10 36 26 46 35 20 18 92 39 158 45 75 8 218
-13 261 -38 l40 -22 19 25 c10 14 27 45 36 68 22 59 11 68 -96 81 -83 11 -263
15 -271 7z"/>
<path d="M2544 1330 c-85 -17 -124 -31 -154 -56 -55 -47 -29 -100 31 -65 55
31 158 61 215 61 38 0 67 -8 109 -30 31 -16 59 -30 61 -30 2 0 10 13 18 29 13
25 13 31 -1 51 -9 12 -31 28 -49 36 -36 15 -162 17 -230 4z"/>
<path d="M3910 1300 c-11 -11 -24 -20 -28 -20 -17 0 -42 -37 -42 -61 1 -13 1
-42 1 -64 -1 -45 7 -62 29 -65 39 -6 63 3 97 33 32 30 37 41 41 90 5 64 -3 80
-49 96 -25 9 -33 7 -49 -9z"/>
<path d="M1137 1293 c-10 -10 -8 -63 3 -105 20 -71 116 -124 150 -83 20 24 29
84 18 118 -17 54 -51 77 -112 77 -29 0 -56 -3 -59 -7z"/>
<path d="M1962 1227 c-25 -39 -29 -117 -9 -157 16 -31 73 -70 103 -70 13 0 30
10 38 23 33 50 28 186 -8 216 -7 6 -33 14 -58 17 -43 6 -46 5 -66 -29z"/>
<path d="M2987 1222 c-27 -27 -37 -47 -38 -72 -2 -50 16 -129 34 -148 14 -13
19 -13 49 1 98 47 139 159 82 226 -37 45 -79 43 -127 -7z"/>
<path d="M2520 1218 c-67 -21 -100 -42 -100 -64 0 -26 31 -32 89 -17 40 11 82
14 148 9 86 -5 93 -4 107 16 48 68 -100 102 -244 56z"/>
<path d="M2555 1121 c-16 -3 -31 -13 -33 -22 -3 -16 69 -69 94 -69 25 0 71 28
94 57 l22 28 -24 6 c-29 9 -114 9 -153 0z"/>
<path d="M2884 1035 c-12 -18 -18 -48 -18 -93 -1 -61 1 -67 20 -70 44 -6 74
78 51 142 -17 50 -31 55 -53 21z"/>
<path d="M2135 998 c-10 -42 9 -152 25 -156 24 -4 64 72 55 106 -10 41 -33 72
-55 72 -12 0 -22 -9 -25 -22z"/>
<path d="M2839 827 c-45 -30 -69 -80 -69 -144 0 -62 17 -83 68 -83 46 0 74 19
96 64 30 63 13 151 -33 176 -25 13 -23 14 -62 -13z"/>
<path d="M2184 826 c-49 -22 -59 -78 -25 -144 28 -55 55 -74 110 -80 43 -4 53
-1 75 21 52 52 24 123 -70 186 -54 35 -49 34 -90 17z"/>
</g>
</svg>
